<svg width="384" height="209" viewBox="0 0 384 209" fill="none" xmlns="http://www.w3.org/2000/svg">
<path d="M0 8.96589C0 13.3842 3.58172 16.9659 8 16.9659C12.4183 16.9659 16 13.3842 16 8.96589C16 4.54761 12.4183 0.965891 8 0.965891C3.58172 0.965891 0 4.54761 0 8.96589ZM368 200.966C368 205.384 371.582 208.966 376 208.966C380.418 208.966 384 205.384 384 200.966C384 196.548 380.418 192.966 376 192.966C371.582 192.966 368 196.548 368 200.966ZM9.5 8.96589C9.5 9.33505 9.20486 9.36632 9.55949 9.18808C9.91408 9.00985 10.5777 8.82071 11.6452 8.68779C13.7479 8.42596 16.9235 8.43663 21.0657 8.72783C29.3195 9.30807 41.0909 10.9765 55.0658 13.5351C83.0022 18.65 119.588 27.2928 154.127 37.7763C188.704 48.2714 221.085 60.5683 240.707 72.9533C250.58 79.1847 256.899 85.2434 258.909 90.8476C259.886 93.5708 259.845 96.1813 258.687 98.744C257.509 101.352 255.116 104.036 251.157 106.725L252.843 109.207C257.072 106.334 259.937 103.264 261.421 99.9793C262.925 96.6494 262.951 93.2286 261.733 89.8347C259.355 83.2045 252.24 76.685 242.308 70.4164C222.322 57.8014 189.608 45.4107 154.998 34.9057C120.35 24.3891 83.6541 15.7194 55.6061 10.5842C41.5888 8.0178 29.6922 6.32686 21.2761 5.73521C17.0833 5.44046 13.6734 5.41207 11.2745 5.71078C10.0911 5.85814 9.02482 6.09918 8.21221 6.50762C7.39963 6.91605 6.5 7.69048 6.5 8.96589H9.5ZM251.157 106.725C242.81 112.396 238.244 118.317 237.05 124.452C235.849 130.622 238.133 136.603 242.566 142.202C251.369 153.32 269.227 163.677 288.82 172.521C308.492 181.4 330.197 188.874 346.966 194.124C355.354 196.751 362.516 198.823 367.581 200.24C370.114 200.948 372.124 201.492 373.501 201.86C374.19 202.044 374.72 202.183 375.079 202.277C375.259 202.324 375.395 202.359 375.487 202.383C375.533 202.395 375.568 202.404 375.592 202.41C375.604 202.413 375.612 202.415 375.619 202.417C375.622 202.418 375.624 202.418 375.625 202.419C375.627 202.419 375.628 202.419 376 200.966C376.372 199.513 376.371 199.513 376.37 199.513C376.369 199.512 376.367 199.512 376.364 199.511C376.359 199.51 376.35 199.508 376.339 199.505C376.317 199.499 376.283 199.49 376.238 199.479C376.149 199.455 376.014 199.421 375.837 199.374C375.483 199.282 374.958 199.144 374.275 198.961C372.908 198.597 370.91 198.056 368.389 197.351C363.348 195.941 356.216 193.877 347.862 191.261C331.147 186.027 309.57 178.595 290.055 169.786C270.461 160.943 253.225 150.831 244.918 140.34C240.796 135.134 239.022 130.025 239.995 125.025C240.975 119.991 244.815 114.661 252.843 109.207L251.157 106.725Z" fill="#F76817"/>
</svg>
