<svg width="471" height="262" viewBox="0 0 471 262" fill="none" xmlns="http://www.w3.org/2000/svg">
<path d="M455 28.9997C455 33.418 458.582 36.9997 463 36.9997C467.418 36.9997 471 33.418 471 28.9997C471 24.5815 467.418 20.9997 463 20.9997C458.582 20.9997 455 24.5815 455 28.9997ZM3.00012 253.5C3.00012 257.918 6.58184 261.5 11.0001 261.5C15.4184 261.5 19.0001 257.918 19.0001 253.5C19.0001 249.082 15.4184 245.5 11.0001 245.5C6.58184 245.5 3.00012 249.082 3.00012 253.5ZM138.228 141.188C91.5277 115.272 59.8582 109.017 38.6639 114.731C17.2786 120.497 7.0535 138.276 2.84265 158.887C-1.36581 179.487 0.335522 203.27 3.05492 221.819C4.41708 231.11 6.04008 239.123 7.32293 244.815C7.96447 247.661 8.52124 249.929 8.91827 251.487C9.1168 252.266 9.27541 252.867 9.38474 253.276C9.43941 253.48 9.48176 253.636 9.51062 253.741C9.52505 253.794 9.53611 253.834 9.54365 253.861C9.54742 253.875 9.55031 253.885 9.55231 253.892C9.5533 253.896 9.55412 253.899 9.55462 253.901C9.55521 253.903 9.55557 253.904 11.0001 253.5C12.4447 253.096 12.4446 253.095 12.4443 253.094C12.4438 253.093 12.4433 253.091 12.4425 253.088C12.4409 253.082 12.4383 253.073 12.4349 253.061C12.4281 253.036 12.4178 252.999 12.4041 252.949C12.3767 252.849 12.3358 252.698 12.2826 252.5C12.1763 252.103 12.0208 251.513 11.8254 250.746C11.4345 249.212 10.8844 246.972 10.2495 244.155C8.97958 238.521 7.37205 230.585 6.0232 221.384C3.32059 202.949 1.678 179.576 5.78193 159.488C9.88346 139.411 19.627 122.971 39.4449 117.628C59.4539 112.233 90.2221 117.978 136.772 143.811L138.228 141.188ZM463 28.9997C462.677 27.5349 462.676 27.5351 462.674 27.5356C462.672 27.5361 462.669 27.5367 462.664 27.5377C462.656 27.5396 462.643 27.5424 462.626 27.5462C462.591 27.5538 462.54 27.5651 462.471 27.5801C462.334 27.6102 462.128 27.6549 461.858 27.7136C461.317 27.8311 460.515 28.0042 459.471 28.2268C457.384 28.6721 454.332 29.3154 450.474 30.1065C442.758 31.6888 431.819 33.8625 418.932 36.2275C393.153 40.9587 359.606 46.4504 328.478 49.507C312.914 51.0354 297.978 51.9526 284.934 51.8652C271.863 51.7776 260.801 50.6807 252.929 48.2391C244.97 45.7709 240.873 42.1439 240.453 37.3856C240.235 34.9206 240.959 31.9076 242.992 28.2449C245.023 24.5861 248.31 20.3728 253.067 15.5538L250.933 13.4462C246.065 18.3772 242.579 22.8084 240.369 26.7888C238.162 30.7652 237.177 34.386 237.465 37.6495C238.056 44.3481 243.826 48.5571 252.04 51.1045C260.34 53.6785 271.755 54.7769 284.914 54.8651C298.1 54.9534 313.148 54.0268 328.772 52.4927C360.019 49.4242 393.659 43.9159 419.474 39.1782C432.384 36.8089 443.344 34.631 451.077 33.0453C454.943 32.2525 458.003 31.6076 460.097 31.1608C461.145 30.9374 461.95 30.7635 462.494 30.6454C462.767 30.5863 462.973 30.5412 463.112 30.5108C463.182 30.4956 463.234 30.4841 463.269 30.4763C463.287 30.4725 463.3 30.4695 463.309 30.4676C463.314 30.4666 463.317 30.4658 463.319 30.4653C463.322 30.4648 463.323 30.4646 463 28.9997ZM253.067 15.5538C262.577 5.92038 270.486 2.62462 276.664 3.3406C282.781 4.04936 287.833 8.77688 291.454 16.7675C298.704 32.7654 299.532 60.5169 292.116 87.6671C284.709 114.784 269.192 140.885 244.207 153.864C219.303 166.801 184.573 166.908 138.228 141.188L136.772 143.811C183.677 169.842 219.511 170.074 245.59 156.526C271.59 143.02 287.479 116.028 295.01 88.4575C302.531 60.9203 301.828 32.3907 294.187 15.5292C290.362 7.09022 284.63 1.24355 277.01 0.360538C269.452 -0.515262 260.673 3.5796 250.933 13.4462L253.067 15.5538Z" fill="#F76817"/>
</svg>
