<svg width="264" height="209" viewBox="0 0 264 209" fill="none" xmlns="http://www.w3.org/2000/svg">
<path d="M247.5 8C247.5 12.4183 251.082 16 255.5 16C259.918 16 263.5 12.4183 263.5 8C263.5 3.58172 259.918 0 255.5 0C251.082 0 247.5 3.58172 247.5 8ZM0.5 200.5C0.5 204.918 4.08172 208.5 8.5 208.5C12.9183 208.5 16.5 204.918 16.5 200.5C16.5 196.082 12.9183 192.5 8.5 192.5C4.08172 192.5 0.5 196.082 0.5 200.5ZM140.262 105.481C143.857 106.06 146.343 106.913 147.942 107.919C149.498 108.898 150.138 109.965 150.28 111.066C150.432 112.243 150.055 113.765 148.934 115.674C147.822 117.567 146.065 119.694 143.711 122.019C134.261 131.354 116.082 143.034 95.8841 154.508C75.7348 165.955 53.7345 177.112 36.763 185.41C28.2791 189.559 21.056 192.991 15.9544 195.385C13.4037 196.583 11.3836 197.521 10.0016 198.159C9.31064 198.478 8.77923 198.722 8.42085 198.887C8.24165 198.969 8.10572 199.031 8.01472 199.073C7.96922 199.093 7.93495 199.109 7.91213 199.119C7.90072 199.125 7.89217 199.129 7.88651 199.131C7.88368 199.132 7.88161 199.133 7.88019 199.134C7.87884 199.135 7.87822 199.135 8.5 200.5C9.12178 201.865 9.12262 201.865 9.12417 201.864C9.12566 201.863 9.12795 201.862 9.13092 201.861C9.13686 201.858 9.1457 201.854 9.15739 201.849C9.18078 201.838 9.21562 201.822 9.2617 201.801C9.35386 201.759 9.49098 201.696 9.67138 201.614C10.0322 201.448 10.5661 201.203 11.2596 200.882C12.6467 200.242 14.6725 199.301 17.2292 198.101C22.3425 195.701 29.5802 192.262 38.0808 188.105C55.078 179.794 77.1402 168.607 97.3659 157.117C117.543 145.654 136.052 133.802 145.82 124.153C148.271 121.732 150.226 119.397 151.521 117.193C152.806 115.004 153.527 112.793 153.255 110.682C152.973 108.495 151.667 106.718 149.539 105.38C147.454 104.068 144.518 103.128 140.738 102.519L140.262 105.481ZM255.5 8C255.263 6.51888 255.262 6.51898 255.261 6.51915C255.26 6.5193 255.259 6.51955 255.257 6.51985C255.253 6.52045 255.247 6.52134 255.24 6.52251C255.226 6.52484 255.204 6.5283 255.176 6.53287C255.12 6.54202 255.036 6.55563 254.927 6.57366C254.708 6.60971 254.384 6.6634 253.966 6.7343C253.128 6.87608 251.908 7.0867 250.376 7.3626C247.311 7.91436 242.995 8.72752 237.983 9.77384C227.968 11.8644 215.137 14.894 203.961 18.6403C198.375 20.5127 193.163 22.5773 188.909 24.8117C184.699 27.0228 181.241 29.4947 179.374 32.2627C178.421 33.6749 177.845 35.22 177.855 36.8705C177.865 38.5274 178.466 40.1358 179.597 41.6689C181.809 44.667 186.173 47.5459 192.918 50.3827L194.082 47.6173C187.452 44.8291 183.723 42.208 182.011 39.8878C181.18 38.7617 180.861 37.7563 180.855 36.8519C180.849 35.9412 181.161 34.9774 181.861 33.9405C183.298 31.81 186.203 29.6217 190.304 27.4676C194.361 25.3368 199.406 23.331 204.914 21.4847C215.926 17.7935 228.625 14.7919 238.596 12.7105C243.576 11.6709 247.865 10.863 250.907 10.3151C252.429 10.0412 253.638 9.83241 254.466 9.69222C254.88 9.62212 255.199 9.56919 255.414 9.53385C255.521 9.51619 255.603 9.50292 255.657 9.49412C255.684 9.48971 255.704 9.48642 255.718 9.48426C255.724 9.48317 255.729 9.48237 255.733 9.48184C255.734 9.48158 255.735 9.4814 255.736 9.48127C255.737 9.48116 255.737 9.48112 255.5 8ZM192.918 50.3827C196.191 51.7591 198.54 53.1026 200.13 54.3879C201.724 55.6757 202.462 56.8257 202.709 57.8022C203.174 59.6357 202.068 61.8615 198.574 64.5635C195.194 67.1783 190.112 69.8059 184.09 72.4082C178.089 75.0009 171.257 77.5264 164.433 79.9623C157.629 82.3912 150.812 84.7386 144.921 86.9513C139.049 89.1565 133.963 91.2764 130.64 93.2775C129.004 94.2627 127.617 95.3213 126.828 96.4796C126.418 97.08 126.115 97.7859 126.095 98.5747C126.075 99.3877 126.361 100.125 126.846 100.751C127.746 101.911 129.387 102.772 131.476 103.484C133.632 104.218 136.536 104.881 140.262 105.481L140.738 102.519C137.089 101.931 134.372 101.301 132.444 100.644C130.449 99.9645 129.544 99.3347 129.218 98.9134C129.09 98.7485 129.094 98.6713 129.094 98.6483C129.096 98.601 129.116 98.4489 129.306 98.1699C129.716 97.5694 130.632 96.7842 132.188 95.8475C135.248 94.0049 140.095 91.9685 145.976 89.7597C151.837 87.5582 158.59 85.2338 165.442 82.7877C172.274 80.3486 179.184 77.7959 185.28 75.1621C191.353 72.5379 196.72 69.7905 200.41 66.9365C203.987 64.1698 206.572 60.833 205.617 57.065C205.155 55.2407 203.904 53.5802 202.016 52.0544C200.125 50.5263 197.496 49.0534 194.082 47.6173L192.918 50.3827Z" fill="#F76817"/>
</svg>
