<svg width="341" height="112" viewBox="0 0 341 112" fill="none" xmlns="http://www.w3.org/2000/svg">
<path d="M3.1018 41C2.2418 41 1.6018 40.8 1.1818 40.4C0.781797 39.98 0.581797 39.34 0.581797 38.48V2.9C0.581797 2.02 0.781797 1.38 1.1818 0.979997C1.6018 0.579997 2.2418 0.379997 3.1018 0.379997C3.9818 0.379997 4.6218 0.579997 5.0218 0.979997C5.4218 1.38 5.6218 2.02 5.6218 2.9V38.48C5.6218 39.34 5.4218 39.98 5.0218 40.4C4.6218 40.8 3.9818 41 3.1018 41ZM30.2813 41C29.4413 41 28.8113 40.79 28.3913 40.37C27.9713 39.95 27.7613 39.32 27.7613 38.48V5.42H16.1213C15.2813 5.42 14.6513 5.21 14.2313 4.79C13.8113 4.37 13.6013 3.74 13.6013 2.9C13.6013 2.06 13.8113 1.43 14.2313 1.01C14.6513 0.589998 15.2813 0.379997 16.1213 0.379997H44.4413C45.2813 0.379997 45.9113 0.589998 46.3313 1.01C46.7513 1.43 46.9613 2.06 46.9613 2.9C46.9613 3.74 46.7513 4.37 46.3313 4.79C45.9113 5.21 45.2813 5.42 44.4413 5.42H32.8013V38.48C32.8013 39.28 32.5813 39.9 32.1413 40.34C31.7213 40.78 31.1013 41 30.2813 41ZM47.4779 26.9C46.9179 26.9 46.4279 26.69 46.0079 26.27C45.5879 25.85 45.3779 25.36 45.3779 24.8C45.3779 24.22 45.5879 23.73 46.0079 23.33C46.4279 22.91 46.9179 22.7 47.4779 22.7H64.0379C64.6179 22.7 65.1079 22.91 65.5079 23.33C65.9279 23.73 66.1379 24.22 66.1379 24.8C66.1379 25.36 65.9279 25.85 65.5079 26.27C65.1079 26.69 64.6179 26.9 64.0379 26.9H47.4779ZM78.3582 41.78C76.6782 41.78 75.8382 40.86 75.8382 39.02V5.18C75.8382 3.18 76.6382 2.18 78.2382 2.18H89.6982C94.8582 2.18 98.5782 2.93 100.858 4.43C103.138 5.93 104.278 8.38 104.278 11.78C104.278 15.08 103.278 17.62 101.278 19.4C99.2982 21.16 96.3982 22.04 92.5782 22.04H80.8782V39.02C80.8782 40.86 80.0382 41.78 78.3582 41.78ZM80.8782 17H89.6982C91.8982 17 93.6982 16.91 95.0982 16.73C96.5182 16.55 97.5582 16.11 98.2182 15.41C98.8982 14.69 99.2382 13.54 99.2382 11.96C99.2382 10.68 98.9682 9.7 98.4282 9.02C97.9082 8.34 96.9582 7.87 95.5782 7.61C94.1982 7.35 92.2382 7.22 89.6982 7.22H80.8782V17ZM113.043 41.36C111.443 41.36 110.643 40.36 110.643 38.36V5.48C110.643 3.48 111.443 2.48 113.043 2.48H138.603C140.603 2.48 141.603 3.36 141.603 5.12C141.603 6.72 140.603 7.52 138.603 7.52H115.683V17H131.223C133.463 17 134.583 17.88 134.583 19.64C134.583 21.24 133.463 22.04 131.223 22.04H115.683V36.32H138.603C140.603 36.32 141.603 37.2 141.603 38.96C141.603 40.56 140.603 41.36 138.603 41.36H113.043ZM148.847 41.36V5.84C148.847 3.8 149.687 2.78 151.367 2.78C153.047 2.78 153.887 3.8 153.887 5.84V36.32H163.667V5.84C163.667 3.8 164.507 2.78 166.187 2.78C167.867 2.78 168.707 3.8 168.707 5.84V36.32H178.487V5.84C178.487 3.8 179.327 2.78 181.007 2.78C182.687 2.78 183.527 3.8 183.527 5.84V41.36H148.847ZM195.367 41.36C193.767 41.36 192.967 40.36 192.967 38.36V5.48C192.967 3.48 193.767 2.48 195.367 2.48H220.927C222.927 2.48 223.927 3.36 223.927 5.12C223.927 6.72 222.927 7.52 220.927 7.52H198.007V17H213.547C215.787 17 216.907 17.88 216.907 19.64C216.907 21.24 215.787 22.04 213.547 22.04H198.007V36.32H220.927C222.927 36.32 223.927 37.2 223.927 38.96C223.927 40.56 222.927 41.36 220.927 41.36H195.367ZM233.632 41.78C231.952 41.78 231.112 40.82 231.112 38.9V5C231.112 3.04 231.912 2.06 233.512 2.06C235.272 2.06 236.152 3.04 236.152 5V17.9H257.032V5C257.032 3.04 257.872 2.06 259.552 2.06C261.232 2.06 262.072 3.04 262.072 5V38.9C262.072 40.82 261.232 41.78 259.552 41.78C257.872 41.78 257.032 40.82 257.032 38.9V22.94H236.152V38.9C236.152 40.82 235.312 41.78 233.632 41.78ZM273.884 41.78C272.244 41.78 271.424 40.82 271.424 38.9V5C271.424 3.04 272.264 2.06 273.944 2.06C275.624 2.06 276.464 3.1 276.464 5.18V32.81L297.404 3.59C298.164 2.57 299.024 2.06 299.984 2.06C301.584 2.06 302.384 3.04 302.384 5V38.9C302.384 40.82 301.544 41.78 299.864 41.78C298.184 41.78 297.344 40.88 297.344 39.08V11.09L276.644 40.13C276.164 40.81 275.744 41.25 275.384 41.45C275.044 41.67 274.544 41.78 273.884 41.78ZM310.417 41.78C308.377 41.78 307.357 40.94 307.357 39.26C307.357 38.2 307.677 37.55 308.317 37.31C308.977 37.05 309.697 36.88 310.477 36.8C311.437 36.7 312.187 36.28 312.727 35.54C313.287 34.8 313.637 34.18 313.777 33.68L315.457 27.5C315.637 26.84 315.947 26.08 316.387 25.22C316.847 24.34 317.437 23.56 318.157 22.88C316.057 21.94 314.517 20.67 313.537 19.07C312.577 17.45 312.097 15.58 312.097 13.46C312.097 9.88 313.347 7.16 315.847 5.3C318.367 3.42 321.977 2.48 326.677 2.48H337.717C339.317 2.48 340.117 3.5 340.117 5.54V39.02C340.117 40.86 339.277 41.78 337.597 41.78C335.877 41.78 335.017 40.86 335.017 39.02V24.32H326.557C324.817 24.32 323.467 24.62 322.507 25.22C321.567 25.8 320.897 26.84 320.497 28.34L318.997 33.98C318.357 36.4 317.227 38.31 315.607 39.71C314.007 41.09 312.277 41.78 310.417 41.78ZM326.677 19.28H335.017V7.52H326.677C323.477 7.52 321.107 8 319.567 8.96C318.027 9.9 317.257 11.38 317.257 13.4C317.257 15.38 318.017 16.86 319.537 17.84C321.057 18.8 323.437 19.28 326.677 19.28ZM134.186 112C130.686 112 127.976 111.27 126.056 109.81C124.156 108.33 123.006 106.06 122.606 103C122.526 102.16 122.706 101.51 123.146 101.05C123.586 100.59 124.226 100.36 125.066 100.36C126.606 100.36 127.466 101.2 127.646 102.88C127.926 104.44 128.556 105.51 129.536 106.09C130.516 106.67 132.066 106.96 134.186 106.96H141.026C143.606 106.96 145.356 106.5 146.276 105.58C147.216 104.64 147.686 102.9 147.686 100.36C147.686 97.84 147.216 96.11 146.276 95.17C145.356 94.23 143.606 93.76 141.026 93.76H136.406C134.726 93.76 133.886 92.92 133.886 91.24C133.886 89.56 134.726 88.72 136.406 88.72H143.306C144.566 88.72 145.446 88.16 145.946 87.04C146.466 85.9 146.726 84.36 146.726 82.42C146.726 80.04 146.296 78.44 145.436 77.62C144.596 76.78 143.006 76.36 140.666 76.36H134.846C132.966 76.36 131.576 76.61 130.676 77.11C129.776 77.61 129.206 78.54 128.966 79.9C128.726 81.54 127.846 82.36 126.326 82.36C125.486 82.36 124.846 82.14 124.406 81.7C123.966 81.24 123.806 80.58 123.926 79.72C124.326 76.9 125.426 74.8 127.226 73.42C129.046 72.02 131.586 71.32 134.846 71.32H140.666C144.426 71.32 147.216 72.23 149.036 74.05C150.856 75.87 151.766 78.66 151.766 82.42C151.766 86.12 150.726 88.74 148.646 90.28C150.026 91.18 151.046 92.46 151.706 94.12C152.386 95.78 152.726 97.86 152.726 100.36C152.726 104.32 151.776 107.25 149.876 109.15C147.976 111.05 145.026 112 141.026 112H134.186ZM175.003 112C171.023 112 168.073 111.05 166.153 109.15C164.253 107.25 163.303 104.32 163.303 100.36V82.42C163.303 78.66 164.213 75.87 166.033 74.05C167.873 72.23 170.663 71.32 174.403 71.32H181.843C185.123 71.32 187.663 72.02 189.463 73.42C191.283 74.8 192.383 76.9 192.763 79.72C192.883 80.58 192.723 81.24 192.283 81.7C191.843 82.14 191.203 82.36 190.363 82.36C188.843 82.36 187.963 81.54 187.723 79.9C187.483 78.54 186.913 77.61 186.013 77.11C185.133 76.61 183.743 76.36 181.843 76.36H174.403C172.043 76.36 170.443 76.79 169.603 77.65C168.763 78.49 168.343 80.08 168.343 82.42V87.4C169.903 85.52 172.123 84.58 175.003 84.58H181.243C185.203 84.58 188.143 85.54 190.063 87.46C191.983 89.38 192.943 92.32 192.943 96.28V100.3C192.943 104.28 191.983 107.23 190.063 109.15C188.143 111.05 185.203 112 181.243 112H175.003ZM175.003 106.96H181.243C183.823 106.96 185.573 106.49 186.493 105.55C187.433 104.59 187.903 102.84 187.903 100.3V96.28C187.903 93.7 187.433 91.95 186.493 91.03C185.553 90.09 183.803 89.62 181.243 89.62H175.003C172.423 89.62 170.663 90.09 169.723 91.03C168.803 91.97 168.343 93.7 168.343 96.22V100.36C168.343 102.9 168.803 104.64 169.723 105.58C170.663 106.5 172.423 106.96 175.003 106.96ZM216.939 111.94C212.359 111.94 208.969 110.85 206.769 108.67C204.589 106.47 203.499 103.08 203.499 98.5V84.64C203.499 80.02 204.589 76.62 206.769 74.44C208.969 72.26 212.359 71.2 216.939 71.26H220.539C225.139 71.26 228.529 72.35 230.709 74.53C232.889 76.69 233.979 80.08 233.979 84.7V98.5C233.979 103.08 232.889 106.47 230.709 108.67C228.529 110.85 225.139 111.94 220.539 111.94H216.939ZM216.939 106.9H220.539C222.679 106.9 224.359 106.64 225.579 106.12C226.799 105.6 227.659 104.73 228.159 103.51C228.679 102.29 228.939 100.62 228.939 98.5V84.7C228.939 82.56 228.679 80.88 228.159 79.66C227.659 78.44 226.799 77.58 225.579 77.08C224.359 76.56 222.679 76.3 220.539 76.3H216.939C214.819 76.26 213.149 76.49 211.929 76.99C210.709 77.47 209.839 78.33 209.319 79.57C208.799 80.79 208.539 82.48 208.539 84.64V98.5C208.539 100.62 208.789 102.29 209.289 103.51C209.809 104.73 210.679 105.6 211.899 106.12C213.119 106.64 214.799 106.9 216.939 106.9ZM218.019 94.54C216.419 94.54 215.619 93.74 215.619 92.14V90.64C215.619 89.08 216.419 88.3 218.019 88.3H219.459C220.979 88.3 221.739 89.08 221.739 90.64V92.14C221.739 93.74 220.979 94.54 219.459 94.54H218.019Z" fill="#49454F"/>
</svg>
